<svg width="40" height="40" viewBox="0 0 40 40" fill="none" xmlns="http://www.w3.org/2000/svg">
<g clip-path="url(#clip0_518_48623)">
<path d="M20 7.49984C20 3.36651 16.6333 -0.000161701 12.5 -0.000161701C8.36667 -0.000161701 5 3.36651 5 7.49984V10.8332C5 14.9665 8.36667 18.3332 12.5 18.3332C16.6333 18.3332 20 14.9665 20 10.8332V7.49984ZM15 10.8332C15 12.2165 13.8833 13.3332 12.5 13.3332C11.1167 13.3332 10 12.2165 10 10.8332V7.49984C10 6.11651 11.1167 4.99984 12.5 4.99984C13.8833 4.99984 15 6.11651 15 7.49984V10.8332ZM25.8333 21.6665C21.7 21.6665 18.3333 25.0332 18.3333 29.1665V32.4998C18.3333 36.6332 21.7 39.9998 25.8333 39.9998C29.9667 39.9998 33.3333 36.6332 33.3333 32.4998V29.1665C33.3333 25.0332 29.9667 21.6665 25.8333 21.6665ZM28.3333 32.4998C28.3333 33.8832 27.2167 34.9998 25.8333 34.9998C24.45 34.9998 23.3333 33.8832 23.3333 32.4998V29.1665C23.3333 27.7832 24.45 26.6665 25.8333 26.6665C27.2167 26.6665 28.3333 27.7832 28.3333 29.1665V32.4998ZM24.0667 7.59984C23.0833 6.61651 23.0833 5.03317 24.0667 4.0665L27.4 0.733172C28.1167 0.016505 29.2 -0.200162 30.1167 0.183172C31.05 0.566505 31.6667 1.48317 31.6667 2.49984V15.8332C31.6667 17.2165 30.55 18.3332 29.1667 18.3332C27.7833 18.3332 26.6667 17.2165 26.6667 15.8332V8.18317C25.7833 8.49984 24.7667 8.29984 24.0667 7.59984ZM15 24.1665V37.4998C15 38.8832 13.8833 39.9998 12.5 39.9998C11.1167 39.9998 10 38.8832 10 37.4998V29.8498C9.11667 30.1665 8.1 29.9665 7.4 29.2665C6.41667 28.2832 6.41667 26.6998 7.4 25.7332L10.7333 22.3998C11.45 21.6832 12.5333 21.4665 13.45 21.8498C14.3833 22.2332 15 23.1498 15 24.1665Z" fill="#F7851C"/>
</g>
<defs>
<clipPath id="clip0_518_48623">
<rect width="40" height="40" fill="white"/>
</clipPath>
</defs>
</svg>
