<svg width="24" height="24" viewBox="0 0 24 24" fill="none" xmlns="http://www.w3.org/2000/svg">
<g clip-path="url(#clip0_249_25885)">
<path d="M6.5 20.25C6.5 21.7689 5.26892 23 3.75 23C2.23108 23 1 21.7689 1 20.25C1 18.7311 2.23108 17.5 3.75 17.5C5.26892 17.5 6.5 18.7311 6.5 20.25ZM2.375 1C1.61508 1 1 1.61508 1 2.375C1 3.13492 1.61508 3.75 2.375 3.75C12.231 3.75 20.25 11.769 20.25 21.625C20.25 22.3849 20.8651 23 21.625 23C22.3849 23 23 22.3849 23 21.625C23 10.2519 13.7481 1 2.375 1ZM2.375 9.25C1.61508 9.25 1 9.86508 1 10.625C1 11.3849 1.61508 12 2.375 12C7.6825 12 12 16.3175 12 21.625C12 22.3849 12.6151 23 13.375 23C14.1349 23 14.75 22.3849 14.75 21.625C14.75 14.8013 9.19867 9.25 2.375 9.25Z" fill="#A6ABB4"/>
</g>
<defs>
<clipPath id="clip0_249_25885">
<rect width="24" height="24" fill="white"/>
</clipPath>
</defs>
</svg>
