<svg width="24" height="24" viewBox="0 0 24 24" fill="none" xmlns="http://www.w3.org/2000/svg">
<g clip-path="url(#clip0_249_25924)">
<path d="M17.5004 8.79168C17.5004 9.24493 17.366 9.688 17.1142 10.0649C16.8624 10.4417 16.5045 10.7355 16.0857 10.9089C15.667 11.0824 15.2062 11.1277 14.7617 11.0393C14.3171 10.9509 13.9088 10.7326 13.5883 10.4121C13.2678 10.0916 13.0495 9.68331 12.9611 9.23877C12.8727 8.79423 12.9181 8.33345 13.0915 7.9147C13.265 7.49595 13.5587 7.13804 13.9356 6.88623C14.3124 6.63442 14.7555 6.50002 15.2087 6.50002C15.8165 6.50002 16.3994 6.74146 16.8292 7.17123C17.259 7.601 17.5004 8.1839 17.5004 8.79168ZM16.2712 17.2369C16.092 17.9412 15.8376 18.624 15.5122 19.2738C14.9113 20.41 14.0091 21.3589 12.9045 22.0162C11.8 22.6735 10.5357 23.0139 9.25041 23H8.33374V18.5478C8.31715 17.7889 8.00829 17.0656 7.47153 16.5289C6.93478 15.9921 6.21156 15.6833 5.45266 15.6667H1.00041V14.75C0.986531 13.4647 1.32692 12.2005 1.98423 11.0959C2.64154 9.99131 3.59038 9.08911 4.72666 8.48827C5.37638 8.16286 6.05926 7.90839 6.76349 7.72927C10.1304 3.18168 14.0363 1.16318 19.7536 1.00002H19.7921C20.2177 0.998608 20.6394 1.08219 21.0324 1.24586C21.4253 1.40953 21.7817 1.64999 22.0805 1.95316C22.3793 2.25633 22.6146 2.6161 22.7725 3.01138C22.9305 3.40666 23.008 3.82949 23.0004 4.2551C22.8354 10.0539 20.8792 13.8334 16.2712 17.2369ZM20.2504 4.21568C20.2524 4.09521 20.2068 3.9788 20.1236 3.89165C20.0404 3.8045 19.9263 3.75362 19.8058 3.75002C14.7999 3.89852 11.7034 5.55218 8.77099 9.6451C8.01068 10.7338 7.33466 11.879 6.74882 13.0707C7.75836 13.325 8.68017 13.848 9.41632 14.5841C10.1525 15.3203 10.6755 16.2421 10.9297 17.2516C12.1215 16.666 13.2668 15.9899 14.3553 15.2294C18.4556 12.2906 20.1092 9.20327 20.2504 4.21568ZM2.49549 18.1674C1.78599 18.875 1.34874 21.0118 1.19382 21.9L1.00041 23L2.10041 22.8057C2.98132 22.6499 5.10524 22.2108 5.81474 21.4994C6.25444 21.0564 6.50119 20.4576 6.50119 19.8334C6.50119 19.2092 6.25444 18.6104 5.81474 18.1674C5.3686 17.7386 4.77386 17.4992 4.15512 17.4992C3.53637 17.4992 2.94164 17.7386 2.49549 18.1674Z" fill="#A6ABB4"/>
</g>
<defs>
<clipPath id="clip0_249_25924">
<rect width="24" height="24" fill="white"/>
</clipPath>
</defs>
</svg>
