<svg width="24" height="24" viewBox="0 0 24 24" fill="none" xmlns="http://www.w3.org/2000/svg">
<g clip-path="url(#clip0_249_25934)">
<path d="M13.375 17.5H10.625V14.75H13.375V17.5ZM13.375 5.58333H10.625V8.33333H13.375V5.58333ZM13.375 10.1667H10.625V12.9167H13.375V10.1667ZM23 8.79167C23 7.0225 21.5608 5.58333 19.7917 5.58333H18.4167V4.20833C18.4167 2.43917 16.9775 1 15.2083 1H8.79167C7.0225 1 5.58333 2.43917 5.58333 4.20833V10.1667H4.20833C2.43917 10.1667 1 11.6058 1 13.375V23H23V8.79167ZM3.75 13.375C3.75 13.1229 3.95533 12.9167 4.20833 12.9167H8.33333V4.20833C8.33333 3.95625 8.53867 3.75 8.79167 3.75H15.2083C15.4613 3.75 15.6667 3.95625 15.6667 4.20833V8.33333H19.7917C20.0447 8.33333 20.25 8.53958 20.25 8.79167V20.25H3.75V13.375ZM18.4167 14.75H15.6667V17.5H18.4167V14.75ZM8.33333 14.75H5.58333V17.5H8.33333V14.75ZM18.4167 10.1667H15.6667V12.9167H18.4167V10.1667Z" fill="#A6ABB4"/>
</g>
<defs>
<clipPath id="clip0_249_25934">
<rect width="24" height="24" fill="white"/>
</clipPath>
</defs>
</svg>
