<svg width="40" height="40" viewBox="0 0 40 40" fill="none" xmlns="http://www.w3.org/2000/svg">
<rect x="-0.75" y="0.75" width="38.5" height="38.5" rx="19.25" transform="matrix(-1 0 0 1 38.5 0)" stroke="#374357" stroke-width="1.5"/>
<g clip-path="url(#clip0_249_25848)">
<path d="M14.5792 15.8994H10.4492V29.0696H14.5792V15.8994Z" fill="#F9F9F9"/>
<path d="M25.7528 15.6138C25.6005 15.5948 25.4388 15.5853 25.277 15.5758C22.9646 15.4806 21.6609 16.8509 21.2042 17.4409C21.0805 17.6027 21.0234 17.6978 21.0234 17.6978V15.9374H17.0742V29.1075H21.0234H21.2042C21.2042 27.7657 21.2042 26.4335 21.2042 25.0918C21.2042 24.3685 21.2042 23.6453 21.2042 22.9221C21.2042 22.0276 21.1376 21.076 21.5848 20.2576C21.9654 19.5725 22.6506 19.2299 23.4214 19.2299C25.7052 19.2299 25.7528 21.2949 25.7528 21.4852C25.7528 21.4947 25.7528 21.5042 25.7528 21.5042V29.1646H29.8827V20.5717C29.8827 17.6312 28.3887 15.8993 25.7528 15.6138Z" fill="#F9F9F9"/>
<path d="M12.5152 14.196C13.8396 14.196 14.9132 13.1223 14.9132 11.7979C14.9132 10.4735 13.8396 9.3999 12.5152 9.3999C11.1908 9.3999 10.1172 10.4735 10.1172 11.7979C10.1172 13.1223 11.1908 14.196 12.5152 14.196Z" fill="#F9F9F9"/>
</g>
<defs>
<clipPath id="clip0_249_25848">
<rect width="20" height="21" fill="white" transform="translate(10 9)"/>
</clipPath>
</defs>
</svg>
