<svg width="40" height="40" viewBox="0 0 40 40" fill="none" xmlns="http://www.w3.org/2000/svg">
<rect x="-0.75" y="0.75" width="38.5" height="38.5" rx="19.25" transform="matrix(-1 0 0 1 38.5 0)" stroke="#374357" stroke-width="1.5"/>
<g clip-path="url(#clip0_518_51575)">
<path d="M25.6408 28.7531H14.3629C12.8045 28.7531 11.5312 27.4799 11.5312 25.9215V14.6437C11.5312 13.0852 12.8045 11.812 14.3629 11.812H25.6408C27.1993 11.812 28.4725 13.0852 28.4725 14.6437V25.9215C28.4725 27.4869 27.2062 28.7531 25.6408 28.7531Z" fill="#F9F9F9"/>
<path d="M20.0046 24.6342C18.8427 24.6342 17.7504 24.182 16.9294 23.361C16.1085 22.54 15.6562 21.4477 15.6562 20.2858C15.6562 19.124 16.1085 18.0317 16.9294 17.2107C17.7504 16.3897 18.8427 15.9375 20.0046 15.9375C21.1665 15.9375 22.2587 16.3897 23.0797 17.2107C23.9007 18.0317 24.3529 19.124 24.3529 20.2858C24.3529 21.4477 23.9007 22.54 23.0797 23.361C22.2518 24.182 21.1665 24.6342 20.0046 24.6342ZM20.0046 16.8628C18.1192 16.8628 16.5816 18.3934 16.5816 20.2858C16.5816 22.1713 18.1122 23.7089 20.0046 23.7089C21.89 23.7089 23.4276 22.1783 23.4276 20.2858C23.4207 18.4004 21.89 16.8628 20.0046 16.8628Z" fill="#374357"/>
<path d="M25.2021 15.7948C25.6632 15.7948 26.037 15.421 26.037 14.9599C26.037 14.4988 25.6632 14.125 25.2021 14.125C24.741 14.125 24.3672 14.4988 24.3672 14.9599C24.3672 15.421 24.741 15.7948 25.2021 15.7948Z" fill="#374357"/>
</g>
<defs>
<clipPath id="clip0_518_51575">
<rect width="18" height="18" fill="white" transform="translate(11 11)"/>
</clipPath>
</defs>
</svg>
