<svg width="24" height="24" viewBox="0 0 24 24" fill="none" xmlns="http://www.w3.org/2000/svg">
<g clip-path="url(#clip0_518_51688)">
<path d="M18.4167 4.66667H17.4083C16.9867 2.57667 15.135 1 12.9167 1H11.0833C8.87417 1 7.0225 2.57667 6.59167 4.66667H5.58333C3.05333 4.66667 1 6.72 1 9.25V18.4167C1 20.9467 3.05333 23 5.58333 23H18.4167C20.9467 23 23 20.9467 23 18.4167V9.25C23 6.72 20.9467 4.66667 18.4167 4.66667ZM11.0833 2.83333H12.9167C14.1083 2.83333 15.1167 3.60333 15.5017 4.66667H8.5075C8.88333 3.60333 9.89167 2.83333 11.0925 2.83333H11.0833ZM16.6933 15.7767L14.5025 18.1233C14.3192 18.3158 14.0808 18.4167 13.8333 18.4167C13.6133 18.4167 13.3842 18.3342 13.21 18.1692C12.8433 17.8208 12.8158 17.2433 13.1642 16.8767L15.1442 14.75H7.41667C6.9125 14.75 6.5 14.3375 6.5 13.8333C6.5 13.3292 6.9125 12.9167 7.41667 12.9167H15.1442L13.1642 10.79C12.8158 10.4233 12.8433 9.83667 13.21 9.4975C13.5767 9.14917 14.1633 9.17667 14.5025 9.54333L16.7117 11.9175C17.2067 12.4125 17.4908 13.1092 17.4908 13.8425C17.4908 14.5758 17.2067 15.2633 16.6842 15.7858L16.6933 15.7767Z" fill="#A6ABB4"/>
</g>
<defs>
<clipPath id="clip0_518_51688">
<rect width="24" height="24" fill="white"/>
</clipPath>
</defs>
</svg>
