<svg width="40" height="40" viewBox="0 0 40 40" fill="none" xmlns="http://www.w3.org/2000/svg">
<rect x="-0.75" y="0.75" width="38.5" height="38.5" rx="19.25" transform="matrix(-1 0 0 1 38.5 0)" stroke="#374357" stroke-width="1.5"/>
<path d="M17.1734 14.0204C15.1998 14.0845 13.7998 14.1864 13.147 14.3185C12.3319 14.4845 11.664 15.0732 11.4074 15.8506C11.1206 16.7072 10.9394 19.3336 11.0187 21.4053C11.1092 23.662 11.2866 24.7903 11.6451 25.3299C12.0677 25.9676 12.6074 26.2809 13.513 26.4129C15.1244 26.6469 19.2301 26.7563 22.6641 26.662C25.4565 26.5827 26.8339 26.462 27.4188 26.2431C27.7018 26.1375 28.1207 25.8318 28.3282 25.579C28.7584 25.0544 28.9094 24.4318 29.0679 22.5676C29.132 21.8129 29.132 18.7978 29.0679 18.0393C28.9773 16.9449 28.8679 16.2657 28.7169 15.8053C28.5094 15.1789 27.8981 14.5902 27.249 14.3977C26.7547 14.2468 25.6452 14.1336 23.9282 14.0581C22.7546 14.0053 18.4376 13.9789 17.1734 14.0204ZM20.5923 18.994C21.815 19.6959 22.8414 20.2884 22.8754 20.3072C22.9244 20.3336 22.4037 20.6468 20.6414 21.6619C19.3772 22.3865 18.3244 22.9865 18.3055 22.994C18.2791 23.0054 18.2678 22.077 18.2678 20.3412C18.2678 18.0921 18.2753 17.677 18.3206 17.6921C18.347 17.7034 19.3697 18.2883 20.5923 18.994Z" fill="#F9F9F9"/>
</svg>
