<svg width="40" height="40" viewBox="0 0 40 40" fill="none" xmlns="http://www.w3.org/2000/svg">
<rect x="-0.75" y="0.75" width="38.5" height="38.5" rx="19.25" transform="matrix(-1 0 0 1 38.5 0)" stroke="#374357" stroke-width="1.5"/>
<g clip-path="url(#clip0_518_51590)">
<path d="M21.318 21.8904V30.1647H17.517V21.8904H14.3594V18.5353H17.517V17.3146C17.517 12.7828 19.4102 10.3999 23.4158 10.3999C24.6437 10.3999 24.9507 10.5973 25.6232 10.7581V14.0765C24.8703 13.945 24.6584 13.8719 23.8763 13.8719C22.948 13.8719 22.4509 14.135 21.9977 14.654C21.5445 15.173 21.318 16.072 21.318 17.3585V18.5426H25.6232L24.4683 21.8977H21.318V21.8904Z" fill="#F9F9F9"/>
</g>
<defs>
<clipPath id="clip0_518_51590">
<rect width="12" height="21" fill="white" transform="translate(14 10)"/>
</clipPath>
</defs>
</svg>
