<svg width="40" height="40" viewBox="0 0 40 40" fill="none" xmlns="http://www.w3.org/2000/svg">
<rect x="-0.75" y="0.75" width="38.5" height="38.5" rx="19.25" transform="matrix(-1 0 0 1 38.5 0)" stroke="#374357" stroke-width="1.5"/>
<g clip-path="url(#clip0_249_25842)">
<path d="M25.6408 28.7529H14.3629C12.8045 28.7529 11.5312 27.4797 11.5312 25.9213V14.6434C11.5312 13.085 12.8045 11.8118 14.3629 11.8118H25.6408C27.1993 11.8118 28.4725 13.085 28.4725 14.6434V25.9213C28.4725 27.4867 27.2062 28.7529 25.6408 28.7529Z" fill="#F9F9F9"/>
<path d="M20.0046 24.6342C18.8427 24.6342 17.7504 24.182 16.9294 23.361C16.1085 22.54 15.6562 21.4477 15.6562 20.2858C15.6562 19.124 16.1085 18.0317 16.9294 17.2107C17.7504 16.3897 18.8427 15.9375 20.0046 15.9375C21.1665 15.9375 22.2587 16.3897 23.0797 17.2107C23.9007 18.0317 24.3529 19.124 24.3529 20.2858C24.3529 21.4477 23.9007 22.54 23.0797 23.361C22.2518 24.182 21.1665 24.6342 20.0046 24.6342ZM20.0046 16.8628C18.1192 16.8628 16.5816 18.3934 16.5816 20.2858C16.5816 22.1713 18.1122 23.7089 20.0046 23.7089C21.89 23.7089 23.4276 22.1783 23.4276 20.2858C23.4207 18.4004 21.89 16.8628 20.0046 16.8628Z" fill="#374357"/>
<path d="M25.1982 15.7946C25.6593 15.7946 26.0331 15.4208 26.0331 14.9597C26.0331 14.4986 25.6593 14.1248 25.1982 14.1248C24.7371 14.1248 24.3633 14.4986 24.3633 14.9597C24.3633 15.4208 24.7371 15.7946 25.1982 15.7946Z" fill="#374357"/>
</g>
<defs>
<clipPath id="clip0_249_25842">
<rect width="18" height="18" fill="white" transform="translate(11 11)"/>
</clipPath>
</defs>
</svg>
