<svg width="40" height="40" viewBox="0 0 40 40" fill="none" xmlns="http://www.w3.org/2000/svg">
<rect x="-0.75" y="0.75" width="38.5" height="38.5" rx="19.25" transform="matrix(-1 0 0 1 38.5 0)" stroke="#374357" stroke-width="1.5"/>
<g clip-path="url(#clip0_518_51581)">
<path d="M14.5831 15.8994H10.4531V29.0696H14.5831V15.8994Z" fill="#F9F9F9"/>
<path d="M25.7567 15.6141C25.6044 15.595 25.4427 15.5855 25.2809 15.576C22.9685 15.4808 21.6648 16.8511 21.2081 17.4411C21.0844 17.6029 21.0273 17.6981 21.0273 17.6981V15.9376H17.0781V29.1077H21.0273H21.2081C21.2081 27.7659 21.2081 26.4337 21.2081 25.092C21.2081 24.3687 21.2081 23.6455 21.2081 22.9223C21.2081 22.0278 21.1415 21.0762 21.5887 20.2578C21.9693 19.5727 22.6545 19.2301 23.4253 19.2301C25.7091 19.2301 25.7567 21.2951 25.7567 21.4854C25.7567 21.4949 25.7567 21.5044 25.7567 21.5044V29.1648H29.8866V20.5719C29.8866 17.6315 28.3926 15.8995 25.7567 15.6141Z" fill="#F9F9F9"/>
<path d="M12.5152 14.196C13.8396 14.196 14.9132 13.1223 14.9132 11.7979C14.9132 10.4735 13.8396 9.3999 12.5152 9.3999C11.1908 9.3999 10.1172 10.4735 10.1172 11.7979C10.1172 13.1223 11.1908 14.196 12.5152 14.196Z" fill="#F9F9F9"/>
</g>
<defs>
<clipPath id="clip0_518_51581">
<rect width="20" height="21" fill="white" transform="translate(10 9)"/>
</clipPath>
</defs>
</svg>
