<svg width="40" height="40" viewBox="0 0 40 40" fill="none" xmlns="http://www.w3.org/2000/svg">
<rect x="-0.75" y="0.75" width="38.5" height="38.5" rx="19.25" transform="matrix(-1 0 0 1 38.5 0)" stroke="#374357" stroke-width="1.5"/>
<path d="M10.291 10.3934C10.9928 11.3643 17.3604 20.4709 17.3775 20.5295C17.3946 20.563 15.7599 22.463 13.7486 24.748C11.7288 27.0414 10.0856 28.933 10.0856 28.9581C10.0856 28.9833 10.445 29 10.8815 29H11.6689L14.9126 25.3088C16.6928 23.2833 18.1649 21.6427 18.182 21.6595C18.2077 21.6762 19.3716 23.3251 20.7752 25.3256L23.3257 28.9581L26.1671 28.9833L29 29L28.7176 28.6066C28.555 28.3806 26.8176 25.9198 24.8577 23.1242L21.2973 18.0436L24.755 14.1097C26.655 11.9502 28.2383 10.1423 28.2725 10.0921C28.3068 10.0251 28.0757 10 27.5194 10H26.7149L23.6509 13.4819C21.5113 15.9176 20.5698 16.9388 20.5014 16.8718C20.4586 16.83 19.3459 15.2648 18.045 13.415L15.6743 10.0419L12.8414 10.0167L10 10L10.291 10.3934ZM20.8009 19.5419L26.6892 27.7863L25.4311 27.8115C24.4982 27.8282 24.1473 27.8031 24.0703 27.7278C23.9847 27.6357 12.5333 11.6238 12.3622 11.3476C12.3108 11.2722 12.6189 11.2555 13.6032 11.2722L14.9126 11.2974L20.8009 19.5419Z" fill="#F9F9F9"/>
</svg>
