<svg width="24" height="24" viewBox="0 0 24 24" fill="none" xmlns="http://www.w3.org/2000/svg">
<path d="M14.5951 16.5833C14.2431 16.5833 13.8911 16.4495 13.6225 16.1809C13.0853 15.6438 13.0853 14.7738 13.6225 14.2367L15.5319 12.3273C15.6483 12.2108 15.6657 12.0743 15.6657 12.0028C15.6657 11.9322 15.6483 11.7956 15.5319 11.6792L13.6179 9.76425C13.0808 9.22708 13.0808 8.35625 13.6179 7.82C14.1551 7.28283 15.025 7.28283 15.5622 7.82L17.4762 9.734C18.0821 10.3399 18.4158 11.1457 18.4158 12.0028C18.4158 12.8598 18.0821 13.6656 17.4762 14.2715L15.5668 16.1809C15.2982 16.4495 14.9462 16.5833 14.5942 16.5833H14.5951ZM10.3812 16.1809C10.9183 15.6438 10.9183 14.7738 10.3812 14.2367L8.46717 12.3227C8.35075 12.2063 8.33333 12.0697 8.33333 11.9982C8.33333 11.9276 8.35075 11.791 8.46717 11.6737L10.3766 9.76425C10.9138 9.228 10.9138 8.35625 10.3766 7.82C9.83942 7.28283 8.9695 7.28283 8.43233 7.82L6.52292 9.72942C5.917 10.3353 5.58333 11.1411 5.58333 11.9982C5.58333 12.8553 5.917 13.661 6.52292 14.2669L8.43692 16.1809C8.7055 16.4495 9.0575 16.5833 9.4095 16.5833C9.7615 16.5833 10.1126 16.4495 10.3812 16.1809ZM23 17.9583V6.04167C23 3.26142 20.7377 1 17.9583 1H6.04167C3.26142 1 1 3.26142 1 6.04167V17.9583C1 20.7377 3.26142 23 6.04167 23H17.9583C20.7377 23 23 20.7377 23 17.9583ZM17.9583 3.75C19.2224 3.75 20.25 4.7785 20.25 6.04167V17.9583C20.25 19.2224 19.2224 20.25 17.9583 20.25H6.04167C4.7785 20.25 3.75 19.2224 3.75 17.9583V6.04167C3.75 4.7785 4.7785 3.75 6.04167 3.75H17.9583Z" fill="#A6ABB4"/>
</svg>
