<svg width="24" height="24" viewBox="0 0 24 24" fill="none" xmlns="http://www.w3.org/2000/svg">
<path d="M20.25 3.75H17.5V3.2495C17.4993 2.65312 17.262 2.08137 16.8403 1.65967C16.4186 1.23796 15.8469 1.00073 15.2505 1H8.75042C8.15388 1.00049 7.5819 1.23761 7.15999 1.65934C6.73809 2.08108 6.50073 2.65296 6.5 3.2495V3.75H3.75C3.02065 3.75 2.32118 4.03973 1.80546 4.55546C1.28973 5.07118 1 5.77065 1 6.5L1 23H23V6.5C23 5.77065 22.7103 5.07118 22.1945 4.55546C21.6788 4.03973 20.9793 3.75 20.25 3.75ZM20.25 6.5V11.0833H3.75V6.5H20.25ZM3.75 20.25V13.8333H10.1667V15.6667H13.8333V13.8333H20.25V20.25H3.75Z" fill="#A6ABB4"/>
</svg>
