<svg width="24" height="24" viewBox="0 0 24 24" fill="none" xmlns="http://www.w3.org/2000/svg">
<g clip-path="url(#clip0_249_25870)">
<path d="M13.8333 7.64584C13.8333 7.96311 13.7393 8.27326 13.563 8.53706C13.3867 8.80087 13.1362 9.00648 12.8431 9.12789C12.5499 9.24931 12.2274 9.28108 11.9162 9.21918C11.605 9.15728 11.3192 9.0045 11.0949 8.78015C10.8705 8.55581 10.7177 8.26997 10.6558 7.95879C10.5939 7.64762 10.6257 7.32507 10.7471 7.03195C10.8685 6.73883 11.0741 6.48829 11.3379 6.31202C11.6017 6.13575 11.9119 6.04167 12.2292 6.04167C12.6545 6.04191 13.0624 6.211 13.3632 6.51179C13.664 6.81257 13.8331 7.22046 13.8333 7.64584ZM23 12C23 9.82441 22.3549 7.69767 21.1462 5.88873C19.9375 4.07979 18.2195 2.66989 16.2095 1.83733C14.1995 1.00477 11.9878 0.786929 9.85401 1.21137C7.72022 1.6358 5.76021 2.68345 4.22183 4.22183C2.68345 5.76021 1.6358 7.72022 1.21137 9.85401C0.786929 11.9878 1.00477 14.1995 1.83733 16.2095C2.66989 18.2195 4.07979 19.9375 5.88873 21.1462C7.69767 22.3549 9.82441 23 12 23H23V12ZM20.25 12V20.25H12C10.3683 20.25 8.77325 19.7661 7.41655 18.8596C6.05984 17.9531 5.00242 16.6646 4.378 15.1571C3.75358 13.6497 3.5902 11.9909 3.90853 10.3905C4.22685 8.79017 5.01259 7.32016 6.16637 6.16637C7.32016 5.01259 8.79017 4.22685 10.3905 3.90853C11.9909 3.5902 13.6497 3.75358 15.1571 4.378C16.6646 5.00242 17.9531 6.05984 18.8596 7.41655C19.7661 8.77325 20.25 10.3683 20.25 12ZM13.8333 12.4583C13.8333 11.8505 13.5919 11.2677 13.1621 10.8379C12.7324 10.4081 12.1495 10.1667 11.5417 10.1667H9.25V12.9167H11.0833V17.5H13.8333V12.4583Z" fill="#A6ABB4"/>
</g>
<defs>
<clipPath id="clip0_249_25870">
<rect width="24" height="24" fill="white"/>
</clipPath>
</defs>
</svg>
