<svg width="24" height="24" viewBox="0 0 24 24" fill="none" xmlns="http://www.w3.org/2000/svg">
<g clip-path="url(#clip0_249_25880)">
<path d="M21.5233 7.06008C20.9063 6.44317 20.1501 6.02792 19.3333 5.79692V3.75C19.3333 2.23383 18.0995 1 16.5833 1C15.0672 1 13.8333 2.23383 13.8333 3.75V5.58333H10.1667V3.75C10.1667 2.23383 8.93283 1 7.41667 1C5.9005 1 4.66667 2.23383 4.66667 3.75V5.7795C2.55375 6.37992 1 8.32233 1 10.625V17.9583C1 20.7386 3.26142 23 6.04167 23C8.82192 23 11.0833 20.7386 11.0833 17.9583V13.8333C11.0833 13.3282 11.4949 12.9167 12 12.9167C12.5051 12.9167 12.9167 13.3282 12.9167 13.8333V17.9583C12.9167 20.7386 15.1781 23 17.9583 23C20.7386 23 23 20.7386 23 17.9583V10.625C23 9.27842 22.4757 8.0125 21.5233 7.06008ZM6.04167 20.25C4.7785 20.25 3.75 19.2215 3.75 17.9583C3.75 16.6952 4.7785 15.6667 6.04167 15.6667C7.30483 15.6667 8.33333 16.6952 8.33333 17.9583C8.33333 19.2215 7.30483 20.25 6.04167 20.25ZM12 10.1667C10.0961 10.1667 8.54417 11.6315 8.36817 13.4896C7.6715 13.1257 6.88133 12.9167 6.04167 12.9167C5.21575 12.9167 4.43842 13.1202 3.75 13.4731V10.625C3.75 9.36183 4.7785 8.33333 6.04167 8.33333H17.9592C18.5707 8.33333 19.1463 8.57167 19.579 9.00433C20.0117 9.437 20.25 10.0127 20.25 10.625V13.4731C19.5616 13.1202 18.7843 12.9167 17.9583 12.9167C17.1187 12.9167 16.3285 13.1257 15.6318 13.4896C15.4558 11.6306 13.9039 10.1667 12 10.1667ZM17.9583 20.25C16.6952 20.25 15.6667 19.2215 15.6667 17.9583C15.6667 16.6952 16.6952 15.6667 17.9583 15.6667C19.2215 15.6667 20.25 16.6952 20.25 17.9583C20.25 19.2215 19.2215 20.25 17.9583 20.25Z" fill="#A6ABB4"/>
</g>
<defs>
<clipPath id="clip0_249_25880">
<rect width="24" height="24" fill="white"/>
</clipPath>
</defs>
</svg>
