<svg width="24" height="24" viewBox="0 0 24 24" fill="none" xmlns="http://www.w3.org/2000/svg">
<g clip-path="url(#clip0_249_25914)">
<path d="M17.5001 8.79153C17.5001 9.24477 17.3657 9.68784 17.1139 10.0647C16.8621 10.4415 16.5042 10.7353 16.0854 10.9087C15.6667 11.0822 15.2059 11.1275 14.7614 11.0391C14.3169 10.9507 13.9085 10.7324 13.588 10.412C13.2676 10.0915 13.0493 9.68314 12.9609 9.23861C12.8725 8.79408 12.9178 8.33331 13.0913 7.91457C13.2647 7.49583 13.5585 7.13793 13.9353 6.88612C14.3122 6.63431 14.7552 6.49991 15.2085 6.49991C15.8162 6.49991 16.3991 6.74135 16.8289 7.17111C17.2587 7.60087 17.5001 8.18376 17.5001 8.79153ZM16.2709 17.2366C16.0917 17.9408 15.8373 18.6237 15.5119 19.2734C14.911 20.4097 14.0089 21.3585 12.9043 22.0158C11.7998 22.6731 10.5355 23.0135 9.25025 22.9996H8.3336V18.5474C8.31701 17.7885 8.00815 17.0653 7.47141 16.5286C6.93466 15.9918 6.21146 15.683 5.45257 15.6664H1.00041V14.7498C0.986531 13.4645 1.32691 12.2002 1.98421 11.0957C2.64151 9.99114 3.59033 9.08896 4.72659 8.48812C5.37629 8.16272 6.05916 7.90826 6.76338 7.72914C10.1302 3.18164 14.0361 1.16318 19.7532 1.00002H19.7917C20.2174 0.998608 20.639 1.08219 21.032 1.24585C21.4249 1.40952 21.7812 1.64998 22.0801 1.95314C22.3789 2.25631 22.6141 2.61607 22.7721 3.01134C22.9301 3.40661 23.0075 3.82944 23 4.25504C22.835 10.0538 20.8789 13.8331 16.2709 17.2366ZM20.25 4.21562C20.252 4.09515 20.2065 3.97874 20.1233 3.89159C20.0401 3.80444 19.9259 3.75356 19.8055 3.74996C14.7996 3.89846 11.7032 5.5521 8.77084 9.64493C8.01054 10.7336 7.33453 11.8788 6.74871 13.0705C7.75823 13.3247 8.68002 13.8477 9.41616 14.5838C10.1523 15.32 10.6753 16.2418 10.9296 17.2513C12.1213 16.6657 13.2665 15.9897 14.3551 15.2292C18.4552 12.2904 20.1089 9.20311 20.25 4.21562ZM2.49546 18.167C1.78598 18.8747 1.34873 21.0114 1.19382 21.8996L1.00041 22.9996L2.10039 22.8053C2.98129 22.6494 5.10516 22.2104 5.81465 21.499C6.25434 21.056 6.50108 20.4572 6.50108 19.833C6.50108 19.2089 6.25434 18.61 5.81465 18.167C5.36851 17.7383 4.77379 17.4989 4.15506 17.4989C3.53633 17.4989 2.9416 17.7383 2.49546 18.167Z" fill="#A6ABB4"/>
</g>
<defs>
<clipPath id="clip0_249_25914">
<rect width="24" height="24" fill="white"/>
</clipPath>
</defs>
</svg>
