<svg width="247" height="32" viewBox="0 0 247 32" fill="none" xmlns="http://www.w3.org/2000/svg">
<path d="M75.7349 18.5168H80.6104C80.1956 19.3629 79.8411 20.004 79.5471 20.4401C79.253 20.8763 78.8644 21.344 78.3813 21.8432C77.641 22.5578 76.8244 23.17 75.9318 23.6797C75.0391 24.1842 74.0966 24.5678 73.1041 24.8306C72.1117 25.0986 71.1088 25.2326 70.0953 25.2326C68.0002 25.2326 66.0468 24.6966 64.2353 23.6246C62.4289 22.5526 60.9954 21.1049 59.9347 19.2814C58.8793 17.4527 58.3516 15.4743 58.3516 13.346C58.3516 11.2388 58.8767 9.28139 59.9269 7.47371C60.9823 5.66603 62.4079 4.23408 64.2038 3.17785C65.9996 2.12162 67.9398 1.59351 70.0244 1.59351C71.5945 1.59351 73.1146 1.90092 74.5849 2.51574C76.0604 3.1253 77.3469 3.98185 78.4444 5.08537C78.9117 5.53204 79.3003 5.98921 79.6101 6.45689C79.9251 6.92458 80.3006 7.5972 80.7364 8.47477H75.9633C75.4644 7.93877 75.0286 7.52889 74.6558 7.24512C74.283 6.95611 73.8366 6.68811 73.3168 6.44113C72.2246 5.9209 71.1271 5.66078 70.0244 5.66078C68.696 5.66078 67.4567 6.01286 66.3068 6.71701C65.1621 7.42116 64.2536 8.36704 63.5815 9.55464C62.9094 10.737 62.5733 12.0218 62.5733 13.4091C62.5733 14.7859 62.9146 16.0707 63.5973 17.2635C64.2851 18.4511 65.2041 19.3997 66.354 20.1091C67.5092 20.8132 68.7458 21.1653 70.0638 21.1653C71.0195 21.1653 71.9542 20.9709 72.8678 20.582C73.4297 20.335 73.9049 20.0723 74.2935 19.7938C74.6873 19.51 75.1678 19.0844 75.7349 18.5168Z" fill="#DDDDDD"/>
<path d="M99.9392 7.923V24.6808H96.2609V22.4186C95.804 22.9598 95.4207 23.3566 95.1109 23.6088C94.8011 23.861 94.3784 24.1212 93.8428 24.3892C92.7873 24.9514 91.6374 25.2326 90.3929 25.2326C88.8544 25.2326 87.4655 24.8463 86.2263 24.0739C84.9923 23.2961 84.0235 22.2241 83.3199 20.8579C82.6162 19.4864 82.2644 17.9519 82.2644 16.2546C82.2644 14.6151 82.632 13.1174 83.3671 11.7617C84.1023 10.4007 85.1052 9.33131 86.3759 8.55359C87.6519 7.77061 89.0539 7.37912 90.5819 7.37912C91.8159 7.37912 92.8924 7.6261 93.8113 8.12006C94.3049 8.36704 94.7171 8.63767 95.0479 8.93194C95.3839 9.22621 95.7883 9.6755 96.2609 10.2798V7.923H99.9392ZM96.1348 16.3492C96.1348 15.377 95.93 14.5074 95.5205 13.7402C95.1161 12.9729 94.5438 12.3765 93.8034 11.9509C93.0683 11.5252 92.2334 11.3124 91.2987 11.3124C90.3483 11.3124 89.4897 11.5305 88.7231 11.9666C87.9617 12.4028 87.3657 13.0071 86.9352 13.7796C86.5098 14.5468 86.2972 15.4138 86.2972 16.3807C86.2972 17.3003 86.5125 18.1359 86.943 18.8873C87.3736 19.6387 87.967 20.2273 88.7231 20.6529C89.4792 21.0786 90.3246 21.2914 91.2593 21.2914C92.1887 21.2914 93.0236 21.0786 93.764 20.6529C94.5044 20.222 95.0846 19.6309 95.5047 18.8794C95.9248 18.1227 96.1348 17.2793 96.1348 16.3492Z" fill="#DDDDDD"/>
<path d="M102.979 24.6808V7.923H106.658V9.44429C107.493 8.06751 108.955 7.37912 111.045 7.37912C113.046 7.37912 114.616 8.16473 115.755 9.73594L115.85 9.86205L115.944 9.95664C116.301 9.4259 116.755 8.96872 117.307 8.58512C117.863 8.19626 118.488 7.89936 119.181 7.69442C119.88 7.48422 120.599 7.37912 121.339 7.37912C123.45 7.37912 125.125 8.06751 126.365 9.44429C127.021 10.18 127.475 10.9682 127.727 11.809C127.985 12.6498 128.113 13.798 128.113 15.2536V24.6808H124.08V15.7344C124.08 14.1947 123.876 13.1306 123.466 12.542C123.225 12.1584 122.875 11.8589 122.419 11.6435C121.967 11.4228 121.476 11.3124 120.946 11.3124C119.722 11.3124 118.798 11.7985 118.173 12.7706C117.932 13.1858 117.769 13.6534 117.685 14.1737C117.601 14.6939 117.559 15.5373 117.559 16.7039V24.6808H113.526V15.7344C113.526 14.3156 113.311 13.2935 112.88 12.6682C112.282 11.7643 111.378 11.3124 110.171 11.3124C109.294 11.3124 108.595 11.5725 108.076 12.0927C107.671 12.4816 107.388 13.0202 107.225 13.7086C107.062 14.397 106.981 15.3954 106.981 16.7039V24.6808H102.979Z" fill="#DDDDDD"/>
<path d="M147.915 18.0912H134.911C135.189 18.8164 135.501 19.3655 135.848 19.7386C136.756 20.7738 137.94 21.2914 139.4 21.2914C140.235 21.2914 141.01 21.1285 141.724 20.8027C142.201 20.582 142.653 20.2615 143.078 19.8411H147.529C147.093 20.892 146.597 21.7092 146.04 22.2925C145.179 23.2173 144.165 23.9399 143 24.4601C141.839 24.9751 140.65 25.2326 139.432 25.2326C137.856 25.2326 136.394 24.8358 135.044 24.0423C133.695 23.2488 132.626 22.1716 131.839 20.8106C131.051 19.4496 130.657 17.973 130.657 16.3807C130.657 14.757 131.054 13.2541 131.847 11.872C132.64 10.49 133.713 9.397 135.068 8.593C136.423 7.78375 137.898 7.37912 139.495 7.37912C141.033 7.37912 142.464 7.77587 143.787 8.56935C145.116 9.35758 146.174 10.4217 146.961 11.7617C147.749 13.1017 148.143 14.5441 148.143 16.0891C148.143 16.3939 148.088 16.9325 147.978 17.705L147.915 18.0912ZM134.848 14.5126H144.079C143.816 13.798 143.493 13.2488 143.11 12.8652C142.175 11.83 140.981 11.3124 139.526 11.3124C137.998 11.3124 136.73 11.8826 135.722 13.0229C135.359 13.4222 135.068 13.9188 134.848 14.5126Z" fill="#DDDDDD"/>
<path d="M150.774 24.6808V2.01915H154.775V24.6808H150.774Z" fill="#DDDDDD"/>
<path d="M158.5 24.6808V2.01915H170.662V6.08642H162.699V11.3124H170.307V15.3797H162.699V20.6135H170.662V24.6808H158.5Z" fill="#DDDDDD"/>
<path d="M172.379 24.6808L178.349 16.026L173.119 7.923H177.798L180.736 12.5105L183.571 7.923H188.25L183.091 16.026L189.061 24.6808H184.123L180.736 19.2578L177.349 24.6808H172.379Z" fill="#DDDDDD"/>
<path d="M190.944 30.3009V7.923H194.622V10.0906C195.047 9.53888 195.412 9.129 195.717 8.861C196.021 8.58775 196.397 8.34077 196.843 8.12006C197.762 7.6261 198.849 7.37912 200.104 7.37912C201.264 7.37912 202.354 7.60508 203.373 8.057C204.396 8.50367 205.289 9.13425 206.051 9.94876C206.817 10.7633 207.411 11.7091 207.831 12.7864C208.251 13.8636 208.461 15.0197 208.461 16.2546C208.461 17.9099 208.088 19.4259 207.342 20.8027C206.602 22.1742 205.586 23.2567 204.294 24.0502C203.008 24.8384 201.59 25.2326 200.041 25.2326C198.954 25.2326 197.985 25.0381 197.134 24.6493C196.452 24.334 195.722 23.7428 194.945 22.8758V30.3009H190.944ZM199.718 11.3124C198.778 11.3124 197.925 11.5305 197.158 11.9666C196.397 12.3975 195.798 12.9992 195.362 13.7717C194.932 14.5389 194.716 15.3981 194.716 16.3492C194.716 17.2583 194.926 18.0912 195.346 18.8479C195.772 19.6046 196.349 20.201 197.079 20.6372C197.814 21.0733 198.628 21.2914 199.521 21.2914C200.429 21.2914 201.262 21.0707 202.018 20.6293C202.779 20.1826 203.375 19.5783 203.806 18.8164C204.242 18.0491 204.459 17.2057 204.459 16.2861C204.459 15.3981 204.244 14.573 203.814 13.8111C203.383 13.0439 202.803 12.4369 202.073 11.9903C201.343 11.5384 200.558 11.3124 199.718 11.3124Z" fill="#DDDDDD"/>
<path d="M227.435 18.0912H214.431C214.709 18.8164 215.022 19.3655 215.368 19.7386C216.277 20.7738 217.461 21.2914 218.921 21.2914C219.756 21.2914 220.53 21.1285 221.244 20.8027C221.722 20.582 222.174 20.2615 222.599 19.8411H227.049C226.613 20.892 226.117 21.7092 225.56 22.2925C224.699 23.2173 223.686 23.9399 222.52 24.4601C221.36 24.9751 220.17 25.2326 218.952 25.2326C217.377 25.2326 215.914 24.8358 214.565 24.0423C213.215 23.2488 212.147 22.1716 211.359 20.8106C210.572 19.4496 210.178 17.973 210.178 16.3807C210.178 14.757 210.574 13.2541 211.367 11.872C212.16 10.49 213.234 9.397 214.589 8.593C215.943 7.78375 217.419 7.37912 219.015 7.37912C220.554 7.37912 221.985 7.77587 223.308 8.56935C224.636 9.35758 225.694 10.4217 226.482 11.7617C227.27 13.1017 227.663 14.5441 227.663 16.0891C227.663 16.3939 227.608 16.9325 227.498 17.705L227.435 18.0912ZM214.368 14.5126H223.599C223.337 13.798 223.014 13.2488 222.63 12.8652C221.696 11.83 220.501 11.3124 219.047 11.3124C217.519 11.3124 216.251 11.8826 215.242 13.0229C214.88 13.4222 214.589 13.9188 214.368 14.5126Z" fill="#DDDDDD"/>
<path d="M230.294 24.6808V7.923H233.941V9.44429C234.471 8.67182 235.004 8.13583 235.54 7.8363C236.076 7.53152 236.758 7.37912 237.588 7.37912H237.911V11.2809C237.097 11.3124 236.419 11.4858 235.879 11.8011C235.354 12.0638 234.933 12.4947 234.618 13.0938C234.403 13.572 234.295 14.4207 234.295 15.6398V24.6808H230.294Z" fill="#DDDDDD"/>
<path d="M240.549 24.6808V11.4779H238.58V7.923H240.549V2.30291H244.582V7.923H247V11.4779H244.582V24.6808H240.549Z" fill="#DDDDDD"/>
<path d="M38.0482 0C43.4366 0 47.8047 4.32401 47.8047 9.6579V15.9355H39.0239V31.8711H24.3892V15.9355H19.9988L14.6328 31.8711H-0.00191498L5.36413 15.9355H14.1449L8.77889 0H19.8976C21.9973 0 23.8615 1.33008 24.5255 3.30187L28.7796 15.9355H33.17V0H38.0482Z" fill="white"/>
</svg>
