<svg width="24" height="24" viewBox="0 0 24 24" fill="none" xmlns="http://www.w3.org/2000/svg">
<g clip-path="url(#clip0_249_25895)">
<path fill-rule="evenodd" clip-rule="evenodd" d="M4.42121 19.5788C4.85098 20.0086 5.43388 20.25 6.04167 20.25H21.625C21.9897 20.25 22.3394 20.3949 22.5973 20.6527C22.8551 20.9106 23 21.2603 23 21.625C23 21.9897 22.8551 22.3394 22.5973 22.5973C22.3394 22.8551 21.9897 23 21.625 23H6.04167C4.70453 23 3.42217 22.4688 2.47667 21.5233C1.53117 20.5778 1 19.2955 1 17.9583V2.375C1 2.01033 1.14487 1.66059 1.40273 1.40273C1.66059 1.14487 2.01033 1 2.375 1C2.73967 1 3.08941 1.14487 3.34727 1.40273C3.60513 1.66059 3.75 2.01033 3.75 2.375V17.9583C3.75 18.5661 3.99144 19.149 4.42121 19.5788ZM19.8473 17.0973C19.5894 17.3551 19.2397 17.5 18.875 17.5C18.5103 17.5 18.1606 17.3551 17.9027 17.0973C17.6449 16.8394 17.5 16.4897 17.5 16.125V10.625C17.5 10.2603 17.6449 9.91059 17.9027 9.65273C18.1606 9.39487 18.5103 9.25 18.875 9.25C19.2397 9.25 19.5894 9.39487 19.8473 9.65273C20.1051 9.91059 20.25 10.2603 20.25 10.625V16.125C20.25 16.4897 20.1051 16.8394 19.8473 17.0973ZM7.875 17.5C8.23967 17.5 8.58941 17.3551 8.84727 17.0973C9.10513 16.8394 9.25 16.4897 9.25 16.125V10.625C9.25 10.2603 9.10513 9.91059 8.84727 9.65273C8.58941 9.39487 8.23967 9.25 7.875 9.25C7.51033 9.25 7.16059 9.39487 6.90273 9.65273C6.64487 9.91059 6.5 10.2603 6.5 10.625V16.125C6.5 16.4897 6.64487 16.8394 6.90273 17.0973C7.16059 17.3551 7.51033 17.5 7.875 17.5ZM14.3473 17.0973C14.0894 17.3551 13.7397 17.5 13.375 17.5C13.0103 17.5 12.6606 17.3551 12.4027 17.0973C12.1449 16.8394 12 16.4897 12 16.125V6.04167C12 5.67699 12.1449 5.32726 12.4027 5.06939C12.6606 4.81153 13.0103 4.66667 13.375 4.66667C13.7397 4.66667 14.0894 4.81153 14.3473 5.06939C14.6051 5.32726 14.75 5.67699 14.75 6.04167V16.125C14.75 16.4897 14.6051 16.8394 14.3473 17.0973Z" fill="#A6ABB4"/>
</g>
<defs>
<clipPath id="clip0_249_25895">
<rect width="24" height="24" fill="white"/>
</clipPath>
</defs>
</svg>
