<svg width="24" height="24" viewBox="0 0 24 24" fill="none" xmlns="http://www.w3.org/2000/svg">
<g clip-path="url(#clip0_249_25929)">
<path d="M22.9844 21.0402L17.544 15.5998C18.6678 14.0781 19.3324 12.1989 19.3324 10.1667C19.3333 5.11217 15.2212 1 10.1667 1C5.11217 1 1 5.11217 1 10.1667C1 15.2212 5.11217 19.3333 10.1667 19.3333C12.1989 19.3333 14.079 18.6678 15.5998 17.5449L21.0402 22.9853L22.9844 21.0411V21.0402ZM13.8333 8.33333H11.0833V7.875C11.0833 7.62292 10.878 7.41667 10.625 7.41667H9.70833C9.45533 7.41667 9.25 7.62292 9.25 7.875C9.25 8.1445 9.41133 8.38375 9.66158 8.48367L11.6929 9.29675C12.9928 9.81558 13.8333 11.0577 13.8333 12.4583C13.8333 13.9067 12.8626 15.1194 11.5417 15.5173V16.5833H8.79167V15.5173C7.47075 15.1194 6.5 13.9067 6.5 12.4583V12H9.25V12.4583C9.25 12.7104 9.45533 12.9167 9.70833 12.9167H10.625C10.878 12.9167 11.0833 12.7104 11.0833 12.4583C11.0833 12.1888 10.922 11.9496 10.6718 11.8497L8.64042 11.0366C7.34058 10.5178 6.5 9.27567 6.5 7.875C6.5 6.42667 7.47075 5.21392 8.79167 4.81608V3.75H11.5417V4.81608C12.8626 5.21392 13.8333 6.42667 13.8333 7.875V8.33333Z" fill="#A6ABB4"/>
</g>
<defs>
<clipPath id="clip0_249_25929">
<rect width="24" height="24" fill="white"/>
</clipPath>
</defs>
</svg>
