<svg width="40" height="40" viewBox="0 0 40 40" fill="none" xmlns="http://www.w3.org/2000/svg">
<rect x="-0.75" y="0.75" width="38.5" height="38.5" rx="19.25" transform="matrix(-1 0 0 1 38.5 0)" stroke="#374357" stroke-width="1.5"/>
<g clip-path="url(#clip0_249_25857)">
<path d="M21.314 21.8906V30.1649H17.5131V21.8906H14.3555V18.5356H17.5131V17.3149C17.5131 12.783 19.4063 10.4001 23.4118 10.4001C24.6398 10.4001 24.9468 10.5975 25.6193 10.7583V14.0768C24.8664 13.9452 24.6545 13.8721 23.8723 13.8721C22.944 13.8721 22.447 14.1353 21.9938 14.6542C21.5406 15.1732 21.314 16.0723 21.314 17.3587V18.5429H25.6193L24.4644 21.8979H21.314V21.8906Z" fill="#F9F9F9"/>
</g>
<defs>
<clipPath id="clip0_249_25857">
<rect width="12" height="21" fill="white" transform="translate(14 10)"/>
</clipPath>
</defs>
</svg>
