<svg width="40" height="40" viewBox="0 0 40 40" fill="none" xmlns="http://www.w3.org/2000/svg">
<path d="M30.2 29.1667C30.2 29.8297 29.9313 30.4656 29.4531 30.9344C28.9749 31.4033 28.3263 31.6667 27.65 31.6667H25.95C25.2737 31.6667 24.6251 31.4033 24.1469 30.9344C23.6686 30.4656 23.4 29.8297 23.4 29.1667C23.4 28.5036 23.6686 27.8678 24.1469 27.3989C24.6251 26.9301 25.2737 26.6667 25.95 26.6667H27.65C28.3263 26.6667 28.9749 26.9301 29.4531 27.3989C29.9313 27.8678 30.2 28.5036 30.2 29.1667ZM21.8564 23.3333H18.1436C17.938 23.8822 17.5427 24.3431 17.0264 24.6359C16.5101 24.9286 15.9055 25.0346 15.3177 24.9356C14.7299 24.8365 14.1962 24.5385 13.8092 24.0936C13.4223 23.6486 13.2067 23.0847 13.2 22.5V16.6667C13.2 14.8986 13.9164 13.2029 15.1917 11.9526C16.4669 10.7024 18.1965 10 20 10C21.8035 10 23.5331 10.7024 24.8083 11.9526C26.0836 13.2029 26.8 14.8986 26.8 16.6667V22.5C26.7932 23.0847 26.5776 23.6486 26.1907 24.0936C25.8038 24.5385 25.27 24.8365 24.6822 24.9356C24.0945 25.0346 23.4898 24.9286 22.9735 24.6359C22.4572 24.3431 22.0619 23.8822 21.8564 23.3333ZM18.3 16.6667V18.3334H21.7V16.6667C21.7 16.2247 21.5209 15.8007 21.2021 15.4882C20.8833 15.1756 20.4509 15 20 15C19.5491 15 19.1167 15.1756 18.7979 15.4882C18.4791 15.8007 18.3 16.2247 18.3 16.6667ZM17.3327 26.5783L15.7602 28.1467C15.2781 27.7214 14.6489 27.4921 14.0005 27.5055C13.3522 27.5189 12.7334 27.774 12.2701 28.2189C11.8067 28.6638 11.5337 29.265 11.5066 29.9002C11.4794 30.5355 11.7002 31.157 12.1239 31.6383C12.1239 31.6383 12.401 31.95 12.4452 31.99C12.8812 32.4162 13.3986 32.7539 13.9679 32.984C14.5371 33.2141 15.147 33.3319 15.7627 33.3309C16.3784 33.3298 16.9878 33.2098 17.5562 32.9777C18.1245 32.7456 18.6407 32.406 19.0752 31.9783L20.9724 30.0883C21.2075 29.8544 21.3932 29.5773 21.5191 29.2729C21.6449 28.9686 21.7084 28.6429 21.7059 28.3145C21.7034 27.9861 21.6349 27.6614 21.5044 27.3589C21.3738 27.0564 21.1838 26.7821 20.9452 26.5517C20.7065 26.3212 20.4239 26.1391 20.1135 26.0157C19.803 25.8923 19.4708 25.8301 19.1359 25.8325C18.8009 25.835 18.4697 25.9022 18.1612 26.0301C17.8526 26.1581 17.5729 26.3444 17.3378 26.5783H17.3327ZM37 11.9284V30.8333C36.9968 33.2635 36.0107 35.5933 34.2579 37.3117C32.5052 39.0302 30.1288 39.9969 27.65 40H12.35C9.87119 39.9969 7.49481 39.0302 5.74203 37.3117C3.98925 35.5933 3.00315 33.2635 3 30.8333V9.16669C3.00315 6.73649 3.98925 4.40671 5.74203 2.6883C7.49481 0.969882 9.87119 0.00312026 12.35 3.31684e-05H24.8331C26.0614 -0.00321694 27.2782 0.232417 28.413 0.693298C29.5479 1.15418 30.5782 1.83115 31.4444 2.68503L34.2613 5.44669C35.1322 6.29589 35.8227 7.30601 36.2928 8.41858C36.7629 9.53116 37.0033 10.7241 37 11.9284ZM31.8745 11.6667H28.5C27.5982 11.6667 26.7334 11.3155 26.0958 10.6904C25.4582 10.0653 25.1 9.21741 25.1 8.33336V5.02503C25.0099 5.02003 12.35 5.00003 12.35 5.00003C11.2228 5.00003 10.1418 5.43902 9.34479 6.22042C8.54776 7.00182 8.1 8.06162 8.1 9.16669V30.8333C8.1 31.9384 8.54776 32.9982 9.34479 33.7796C10.1418 34.561 11.2228 35 12.35 35H27.65C28.7771 35 29.8581 34.561 30.6552 33.7796C31.4522 32.9982 31.9 31.9384 31.9 30.8333C31.9 30.8333 31.8796 11.755 31.8745 11.6667Z" fill="#F7851C"/>
</svg>
