<svg width="32" height="39" viewBox="0 0 32 39" fill="none" xmlns="http://www.w3.org/2000/svg">
<path d="M7.26333 6.71318C9.81167 4.32485 13.1483 3.14485 16.6467 3.36152C23.1867 3.78485 28.3117 9.47652 28.3117 16.3182C28.3117 19.2682 25.9133 21.6665 22.9633 21.6665H18.9533C18.5467 20.2849 17.2833 19.2682 15.77 19.2682C13.9283 19.2682 12.4367 20.7598 12.4367 22.6015C12.4367 24.4432 13.9283 25.9349 15.77 25.9349C16.6667 25.9349 17.4783 25.5765 18.0767 24.9998H22.9633C27.75 24.9998 31.645 21.1049 31.645 16.3182C31.6433 7.72318 25.15 0.569849 16.86 0.0348495C12.42 -0.253484 8.20833 1.25485 4.98333 4.28152C2.005 7.07318 0.215 10.9415 0 15.0015H3.33833C3.54333 11.8299 4.91833 8.91152 7.26333 6.71318Z" fill="#F7851C"/>
<path d="M31 36.8067V39.3067H26V36.8067C26 34.5083 24.1317 32.64 21.8333 32.64H10.1667C7.87 32.64 6 34.5083 6 36.8067V39.3067H1V36.8067C1 31.7533 5.11167 27.64 10.1667 27.64H21.8333C26.8867 27.64 31 31.7533 31 36.8067ZM16 11C18.7517 11 20.9933 13.2367 21 15.9867C21 16.57 20.8783 17.12 20.6917 17.64H24.3333C26 17.64 25.9983 16.56 26 16V15.9733C25.985 10.4717 21.505 6 16 6C10.495 6 6.01333 10.4733 6 15.9733V16C6.00833 18.9817 7.335 21.6533 9.41833 23.4833C9.38333 23.205 9.33333 22.93 9.33333 22.6417C9.33333 20.76 10.12 19.0667 11.375 17.855C11.14 17.2767 11.0017 16.65 11 15.9883C11.0067 13.2383 13.2483 11.0017 16 11.0017V11Z" fill="#F7851C"/>
</svg>
