<svg width="40" height="40" viewBox="0 0 40 40" fill="none" xmlns="http://www.w3.org/2000/svg">
<g clip-path="url(#clip0_518_48628)">
<path d="M20 38.333C25.5228 38.333 30 33.8559 30 28.333C30 22.8102 25.5228 18.333 20 18.333C14.4772 18.333 10 22.8102 10 28.333C10 33.8559 14.4772 38.333 20 38.333Z" fill="#F7851C"/>
<path d="M18.9717 15.0405L12.8433 4.42213C12.697 4.16878 12.4867 3.9584 12.2333 3.81214C11.9799 3.66587 11.6925 3.58887 11.4 3.58887C11.1075 3.58887 10.8201 3.66587 10.5667 3.81214C10.3133 3.9584 10.103 4.16878 9.95667 4.42213L0 21.6671H8.45667C9.54032 19.7925 11.0638 18.2096 12.8957 17.0551C14.7276 15.9006 16.8129 15.2092 18.9717 15.0405Z" fill="#F7851C"/>
<path d="M21.6641 6.66699V15.1037C24.3123 15.442 26.7986 16.5655 28.8027 18.3293C30.8068 20.0931 32.237 22.4165 32.9091 25.0003H39.9974V6.66699H21.6641Z" fill="#F7851C"/>
</g>
<defs>
<clipPath id="clip0_518_48628">
<rect width="40" height="40" fill="white"/>
</clipPath>
</defs>
</svg>
