<svg width="40" height="40" viewBox="0 0 40 40" fill="none" xmlns="http://www.w3.org/2000/svg">
<path d="M20 0C8.97167 0 0 8.97167 0 20C0 31.0283 8.97167 40 20 40C31.0283 40 40 31.0283 40 20C40 8.97167 31.0283 0 20 0ZM10.8333 22.5C9.45333 22.5 8.33333 21.38 8.33333 20C8.33333 18.62 9.45333 17.5 10.8333 17.5C12.2133 17.5 13.3333 18.62 13.3333 20C13.3333 21.38 12.2133 22.5 10.8333 22.5ZM20 22.5C18.62 22.5 17.5 21.38 17.5 20C17.5 18.62 18.62 17.5 20 17.5C21.38 17.5 22.5 18.62 22.5 20C22.5 21.38 21.38 22.5 20 22.5ZM29.1667 22.5C27.7867 22.5 26.6667 21.38 26.6667 20C26.6667 18.62 27.7867 17.5 29.1667 17.5C30.5467 17.5 31.6667 18.62 31.6667 20C31.6667 21.38 30.5467 22.5 29.1667 22.5Z" fill="#F7851C"/>
</svg>
