<svg width="40" height="40" viewBox="0 0 40 40" fill="none" xmlns="http://www.w3.org/2000/svg">
<g clip-path="url(#clip0_518_48618)">
<path d="M40 19.9998C40 31.0332 31.0333 39.9998 20 39.9998C8.96667 39.9998 0 31.0332 0 19.9998C0 8.96651 8.96667 -0.000161701 20 -0.000161701C20.3167 -0.000161701 20.6333 -0.000161701 20.95 0.016505C22.3333 0.0831716 23.4 1.24984 23.3333 2.63317C23.2667 4.01651 22.1333 5.04984 20.7167 5.01651C20.4833 5.01651 20.2333 4.99984 20 4.99984C11.7333 4.99984 5 11.7332 5 19.9998C5 28.2665 11.7333 34.9998 20 34.9998C28.2667 34.9998 35 28.2665 35 19.9998C35 19.7665 35 19.5165 34.9833 19.2832C34.9167 17.8998 35.9833 16.7332 37.3667 16.6665C38.7833 16.6165 39.9167 17.6665 39.9833 19.0498C39.9833 19.3665 40 19.6832 40 19.9998ZM18.1833 13.5832C19.5167 13.1998 20.2833 11.8332 19.9167 10.4998C19.55 9.16651 18.15 8.39984 16.8333 8.76651C11.8333 10.1832 8.35 14.7998 8.35 19.9998C8.35 26.4332 13.5833 31.6665 20.0167 31.6665C25.2167 31.6665 29.8333 28.1832 31.25 23.1832C31.6333 21.8498 30.85 20.4665 29.5167 20.0998C28.1833 19.7165 26.8 20.4998 26.4333 21.8332C25.6333 24.6832 22.9833 26.6832 20.0167 26.6832C16.3333 26.6832 13.35 23.6998 13.35 20.0165C13.35 17.0498 15.35 14.3998 18.2 13.5998L18.1833 13.5832ZM18.2333 18.2332C17.25 19.2165 17.25 20.7998 18.2333 21.7665C18.7167 22.2498 19.3667 22.4998 20 22.4998C20.6333 22.4998 21.2833 22.2498 21.7667 21.7665L30.2 13.3332H34.1667C34.8333 13.3332 35.4667 13.0665 35.9333 12.5998L39.2667 9.26651C39.9833 8.54984 40.2 7.48317 39.8167 6.54984C39.4333 5.61651 38.5167 4.99984 37.5 4.99984H35V2.49984C35 1.48317 34.3833 0.583172 33.45 0.183172C32.5167 -0.200162 31.4333 0.016505 30.7333 0.733172L27.4 4.0665C26.9333 4.53317 26.6667 5.1665 26.6667 5.83317V9.79984L18.2333 18.2332Z" fill="#F7851C"/>
</g>
<defs>
<clipPath id="clip0_518_48618">
<rect width="40" height="40" fill="white"/>
</clipPath>
</defs>
</svg>
